<?xml version="1.0" encoding="utf-8"?>
<!-- Generator: Adobe Illustrator 25.2.0, SVG Export Plug-In . SVG Version: 6.00 Build 0)  -->
<svg version="1.1"
	 id="svg151396" xmlns:cc="http://creativecommons.org/ns#" xmlns:dc="http://purl.org/dc/elements/1.1/" xmlns:rdf="http://www.w3.org/1999/02/22-rdf-syntax-ns#" xmlns:svg="http://www.w3.org/2000/svg"
	 xmlns="http://www.w3.org/2000/svg" xmlns:xlink="http://www.w3.org/1999/xlink" x="0px" y="0px" viewBox="0 0 1024 768"
	 style="enable-background:new 0 0 1024 768;" xml:space="preserve">
<style type="text/css">
	.st0{clip-path:url(#SVGID_3_);}
	.st1{fill:#F4F4F4;}
	.st2{fill:#919191;}
</style>
<g>
	<defs>
		<polygon id="SVGID_1_" points="32.2,-13.4 33.2,-13.4 32.2,-12.4 		"/>
	</defs>
	<defs>
		<polygon id="SVGID_2_" points="30.2,-15.4 29.2,-15.4 30.2,-16.4 		"/>
	</defs>
	<clipPath id="SVGID_3_">
		<use xlink:href="#SVGID_1_"  style="overflow:visible;"/>
	</clipPath>
	<clipPath id="SVGID_4_" class="st0">
		<use xlink:href="#SVGID_2_"  style="overflow:visible;"/>
	</clipPath>
</g>
<g id="slogan" transform="translate(0 0)">
</g>
<path class="st1" d="M-190.4,304.1c-0.1,0.1-0.2,0.2-0.3,0.4c0-0.1,0-0.2,0-0.2C-190.6,304.2-190.5,304.1-190.4,304.1
	C-190.4,304.1-190.4,304.1-190.4,304.1z"/>
<path class="st2" d="M-308.4,129.4c-6.2-5.2-9.4-11.1-11.5-17.6c-2.2-7-3.9-14.1-5.9-21.1c-3.5-12.5-9.7-16.6-22.2-13.7
	c-23.2,5.4-41.3,17.2-49.2,41.1c-1.9,5.6-1.7,11.5-2.1,17.3c-1.7,22.6-10.8,42.3-23.2,60.8c-10.8,16.1-23.4,30.7-34.7,46.4
	c-1.2,1.6-2.5,3.2-3.5,4.9c-5,9-13.1,13.5-22.9,15.2c-14.5,2.6-29,5.5-43.4,9c-9.7,2.4-13.3,6.5-12.8,15.4
	c0.7,10.9,5.9,17.9,15.3,17.4c18.9-0.9,37.9-0.4,56.4-5.7c29-8.4,49.9-27.1,64-53c12.8-23.6,27.5-45.5,46.8-64.3
	c1-0.9,1.9-1.9,2.9-2.8c0.2-0.2,0.6-0.1,1.1-0.2c1.5,9.6-1,17.9-7.2,25.4c-19.2,23.1-35.6,48.1-48.8,75.1c-2.2,4.5-4.2,9.1-5.3,14
	c-2.5,10.8,1.2,17.7,11.5,21.7c6.6,2.5,13.5,3.4,20.4,4.6c10.6,1.8,21.3,4,32.1,4.4c19,0.8,25.3-5.1,27.6-24
	c1.9-15.6,2.1-31.2,2.8-46.8c1.5-35.1,4.9-70,9.4-104.8c0.1-0.4,0.4-0.8,1.1-2.3c0.9,7.8,1.8,14.4,2.3,21.1
	c2.8,35.4,2.4,70.8-1.5,106.1c-2.2,19.5-4.3,39-3.3,58.7c0.6,12.6,2.4,25,7.5,36.4c5.7,13,5.6,25.9,2.1,39
	c-8.9,33.3-15.3,67.1-19.2,101.3c-3.4,29.1-4.8,58.3-5.7,87.6c-1.4,47.4,2.5,94.8,1.5,142.3c-0.4,19.5,0,39,0,58.4
	c0,15.2-7,23.5-22.3,24.5c-31.7,2-63.4,4.7-95.2,0.9c-13.2-1.6-26.2-4.6-38.7-9.1c-2.5-0.9-4.9-2.2-7-3.8
	c-8.8-6.8-8.1-17.3,1.6-22.9c3.9-2.2,8.2-3.8,12.1-5.9c25.3-13.6,38.8-35.6,44.5-63c2.4-11.4,3.7-23,4.1-34.6
	c1.9-54.6,1.7-109.2,0.8-163.8c-0.6-34.6-2.8-69.2-3.1-103.8c-0.3-28.6,1.5-57.2,3.1-85.8c0.3-6,0.5-12,0.1-18
	c-0.6-8.4-4.8-11.5-12.7-8.8c-9.7,3.3-19.6,6.3-29.3,9.6c-9.9,3.4-14.8,11.2-14.5,21.1c0.4,9.8-5.4,13.7-14.7,14.2
	c-11.8,0.7-23.6-0.1-35.4,0.8c-16.8,1.2-21.7,5.8-22.1,22.8c-0.6,25.3-0.8,50.6-1.3,75.9c-0.7,39.4-1.4,78.9-2.1,118.3
	c-0.6,33.8-1.4,67.5-2,101.3c-0.8,38.9-2.4,77.9-1.6,116.8c0.1,6.6,0.8,13.3,1.6,19.9c1.5,11.9-2.1,16.9-14,18.9
	c-16,2.7-19,0.1-19.7-15.7c-1.8-40.4-1.3-80.9-0.4-121.3c0.9-45.1,2.7-90.2,3-135.3c0.2-24.3,0.5-48.6,0.9-72.9
	c0.5-30.6,1.2-61.2,1.9-91.8c0.2-8,0.6-16,0.7-23.9c0.1-11.5-3.9-15.7-15.5-16c-35.6-0.9-71.2-0.9-106.8,0
	c-25.5,0.6-50.8,2.8-76.2,4.6c-7,0.5-13.9-0.4-20.8-1.8c-2.4-0.5-4.9-1.2-7.3-1.4c-17.7-2.1-27.9,6.4-28.1,24.3
	c-0.5,32.4-1.9,64.9-0.9,97.4c1.4,42.2,3.1,84.4,5,126.7c1.7,38.4,3.2,76.8,4.1,115.2c0.5,22.6,0.6,45.3,0.7,67.9
	c0,5.4-0.5,10.7-2.1,15.8c-2.3,6.9-6.6,9.5-13.7,8.3c-2.3-0.4-4.6-0.9-6.7-1.7c-10.1-3.5-12.1-6.6-12-17.3
	c0.4-43.8-0.4-87.5-1.4-131.3c-0.8-37.9-1.9-75.9-3-113.8c-1.1-36.9-1.6-73.9-1.4-110.8c0.1-20.5,0.5-40.9,1-61.4
	c0.2-8.5-2.9-14.2-10.6-18c-9.4-4.7-10.1-13.8-9.7-22.8c0.4-9.7,3.7-13.9,13.4-14.8c13.6-1.2,26.9-4.2,40.6-4.7
	c5.2-0.2,10.3,0.2,15.4,0.8c15.1,1.7,27.7-3.1,36.4-15.9c16.2-24,27.1-50,27.5-79.4c0.2-14.2-2.9-28-7.3-41.6
	c-16-49.7-30.4-99.8-45.7-149.7c-0.1-0.5-0.3-0.9-0.5-1.4c-4.5-16.3,0.6-24.2,17.4-27c6.9-1.2,12.1,1.9,14.3,9.3
	c3.3,11,6,22.1,9.1,33.2c19.7,70.6,42.5,140.2,65.9,209.7c2.6,7.7,6.9,14.7,10.4,22.1c4.3,9.2,6.2,18.6,3.6,28.6
	c-1.1,4.1,0.6,6.7,4.4,8.3c9.2,3.9,18.6,3,27.9,0.9c8-1.9,15.4-5.2,22.2-9.8c7.1-4.8,12.4-10.8,15.3-19.1c3.5-10,8.4-19.5,11.2-29.9
	c2.3-8.7,2.6-17.4,0.4-26.1c-1-4-0.9-7.9,1.4-11.5c3.3-5,10.1-5.6,13.5-0.8c4.4,6.1,7.7,12.8,6.8,20.8c-0.4,3.3-0.4,6.7-0.2,10
	c0.4,6.4,3.3,9.2,9.7,9.9c18.2,1.9,33.8-4.6,47.5-15.8c22.9-18.6,42.1-40.7,59.7-64.2c9.1-12.1,16.8-25.2,24.9-38
	c7.9-12.6,16.5-24.6,27-35.2c2.4-2.4,4.2-5.2,5.4-8.3c2.9-7.3,0.2-12.1-7.5-13.4c-3.6-0.6-7.3-1-10.8-1.7c-14.2-3-24.1-11.5-28.8-25
	c-6.4-18.4-11.3-37.2-10.3-57c0.3-6.6,0.6-13.3-0.4-19.9c-1.9-13.2-9.4-21.7-21.8-26c-3.9-1.4-7.1-3.5-8.9-7.5
	c-2.7-6.2,0.8-12,7.3-10.6c15,3.4,26.3-3,37.5-11.7c16.9-13.1,36.1-21.3,57.7-22.4c29.6-1.5,52.4,11.4,69.3,35
	c8.4,11.7,14.9,24.4,16,39.2c1.2,18.2-4.9,34-16.1,48c-1.6,1.9-3.2,3.9-4.6,5.9c-8,11.4-8.5,23-1.3,35c5.7,9.4,13.7,17.2,19,26.9
	C-310.8,95.3-306.6,111-308.4,129.4z M-399.9,734.9c0,7.1-0.3,12.2,0.1,17.4c0.6,10.4,6.1,16.6,16.2,17.6c10.2,1,20.6,1.4,30.8,1.5
	c6.9,0.1,11.1-3.6,11.7-10.4c1.5-15.5,4.2-31,4-46.7c-0.3-16.9-2-33.8-2.5-50.8c-1.1-41.8-0.5-83.5,3.5-125.1
	c4-41.9,10.7-83.3,19.9-124.3c4.9-21.9,4.7-43.5-2.7-64.9c-3.1-8.9-7.6-12-17-12.6c-11.8-0.8-23.5-1.8-35.3-2.8
	c-9.4-0.7-18.9-1.9-28.3-2c-9.2-0.1-13.7,5.8-12.7,15c0.7,6.6,1.1,13.3,1.2,19.9c0.2,20.3-2,40.5-2.5,60.8
	c-1,35.6-0.1,71.2,1.1,106.8c1.1,36.4,3.3,72.7,5.8,109.1c1,14.4,2.6,28.8,3.5,43.2C-402.1,703.4-399,720-399.9,734.9z M-477-59.2
	c9.8,3.1,18.7,6.4,27.3,10.3c22.4,10.1,44.9,19.2,70.4,17.2c5.9-0.5,10.2,3.7,12.9,8.9c3.5,6.7,4.6,13.9,3,21.3
	c-2.1,9.7-8.7,15.2-18.6,15.6c-1.8,0.1-4.2,0.9-5.2-0.5c-1.2-1.8,0.6-3.8,1.6-5.4c2.4-3.8,5.3-7.3,7.6-11.1
	c2.6-4.3,1.5-9.4-2.6-12.5c-4.1-3.2-6.3,0.5-8.9,2.6c-1,0.8-2,1.8-3.1,2.5c-3.6,2.4-7.7,1.9-10-1.7c-4.8-7.7-11.9-11.2-20.4-12.9
	c-12-2.5-24.9-2.5-34.7-12.7c-0.5,10.2-0.8,19.5-0.4,28.8c0.5,9.5,1.6,18.9,3.5,28.2c1.3,6.7,3,13.3,5,19.8
	c5.5,18.1,24.4,25.4,40.8,15.5c5.8-3.5,11-8,16.6-11.9c6.6-4.6,13.7-6,21.2-2.4c2.8,1.4,3.7,0.2,4.9-2.1c2.7-5.4,6.3-10.1,10.3-14.7
	c6.3-7.3,13-14.3,18.8-21.9c13.9-18,15.3-41.5,2.5-59c-12.7-17.4-29.2-30.5-50.1-37.1c-13.4-4.3-27.1-4.6-39.9,1.7
	C-443-83.8-459.1-70.8-477-59.2z M-559.7,262.3c2.7,1.2,4.9,1.3,7.1,1.4c8.8,0.2,17.6-0.4,26.3-1.8c39.6-6.5,69.4-26.5,86.8-63.3
	c10.9-23,13.8-47.7,14.6-72.8c0-0.9,0.8-2.3-1-3c-1.4,2-2.9,4-4.3,6.1c-14.4,20.8-28.1,42-43.5,62.1c-17.9,23.4-38,44.6-63.5,59.9
	C-544.2,255.1-551.6,258.8-559.7,262.3z M-603.4,316.7c-19.2,0.5-42.1,1.3-65.1,1.8c-31.4,0.6-62.8,1.8-94.2,3.1
	c-23.9,1-47.9,1.6-71.8,2.4c-6.1,0.2-12.3,0.6-18.4,0.8c-1.7,0.1-3.1,0.4-3,2.4c0.1,1.9,1.7,1.7,3,1.7c4,0.2,8,0.5,12,0.5
	c35.9,0.7,71.8,1.3,107.8,2c39.4,0.7,78.8,1.4,118.2,2.1c31.6,0.5,63.2,0.9,94.8,1.4c5.5,0.1,10.9,1.1,16.4,0
	c4.4-0.8,7.1-2.8,6.9-7.5c-0.1-4.5-2.6-7.1-7.7-7.5c-3.3-0.3-6.7-0.1-10-0.2C-542.8,318.9-571.2,317-603.4,316.7z M-409.1,812.9
	c9.2-0.9,21-0.6,32.8-1c10.1-0.4,20.3-0.7,30.3-2.8c6-1.3,8.4-3.9,9.6-9.9c0.7-3.7-0.1-7.3-0.3-10.9c-0.3-8.1-2.5-9.9-10.3-7.7
	c-12,3.3-24.1,3.8-36,0.6c-11.6-3.2-22.3-1.7-32.9,3.1c-9.9,4.5-19.8,8.9-28.3,15.7c-4.8,3.9-4.8,5.7-0.2,9.9
	c3.3,3.1,7.3,4.3,11.8,4.5C-425.4,814.7-418.6,812.8-409.1,812.9z M-567.2,412.5c-0.5,1.9-1,3.7-1.4,5.6
	c-4.4,24.8-5.5,49.9-6.7,74.9c-1.4,28.4-2.5,56.8-2.9,85.3c-0.8,62.2-1.4,124.5,0.9,186.7c0.3,9.3,1,18.6,2,27.8
	c0.4,3.7,0.1,7.7,2.6,11.7C-566.5,673.5-572.2,543-567.2,412.5z M-856.6,445.3c-5.7,36.3,0.9,224.3,8.7,246.9
	C-842.5,608.9-853.4,527.2-856.6,445.3z M-737.6,305.9c2.2,0,3.9,0,5.5,0c11.5-0.3,16.7-6.6,14.5-17.9c-0.2-1.1-0.6-2.3-0.9-3.4
	c-3.2-9.7-8.8-18.2-13.2-27.3c-1.2-2.5-2.4-1.5-3.6,0c-10.7,13.3-18.8,28.1-24.5,44.2c-0.9,2.6,0,3.1,2.4,3.2
	C-750.7,305-743.9,305.5-737.6,305.9z M-610.6,294.8c9.7-0.5,18.6-0.2,27.3,2c7.2,1.8,14.3,4.2,21.5,6.3c3.4,1,5.8-0.1,7.2-3.4
	c3.9-8.5,0.8-17-7.7-20.8C-576.8,272.3-601.4,280-610.6,294.8z M-757.2,139.4c1,6.2,1.8,12.5,3,18.7c4.8,26.3,11.8,51.9,26.7,74.6
	c0.7,1.1,0.9,2.5,1.4,3.7c0.6,1.6,0.7,4.1,3.4,3.1c2.7-0.9,2.8-3.1,1.6-5.3c-1.3-2.3-2.6-4.5-3.2-7.2c-3.7-17.8-8.8-35.1-15.3-52.1
	C-744.4,162.5-750,150.5-757.2,139.4z M-415.9,768.7c-0.2-3.6-3.9-6.9-7.9-6.6c-10,0.6-17.8,5.7-25.2,11.9c-8.4,7-15.6,15.4-25,21.2
	c-3.3,2-0.9,3.8,0,5.8c1,2.2,2.2,3,4.6,1.5c17.1-10.3,34.2-20.4,51.3-30.6C-417.1,771.2-415.7,770.7-415.9,768.7z M-795.8,5.6
	c-1.8,24.7,4.6,46.5,22.9,65.8C-778.2,47.6-780.4,24.4-795.8,5.6z M-348.4,60.1c-11.8-6.1-31.9,1.9-45.4,17.7
	C-376.9,76.8-362.6,69.6-348.4,60.1z M-416.3,718.9c-0.3,0-0.6-0.1-0.9-0.1c-2.3,5.8-4.7,11.7-7,17.5c-1.1,2.9-2.4,5.8-3.2,8.9
	c-0.6,2.3-0.2,4.8,1.9,6.3c2.1,1.6,4.4,0.8,6.5-0.5c5.1-3,7.9-8.4,6.7-14.3C-413.4,730.7-414.9,724.8-416.3,718.9z M-569.2,348
	c-1.7,0.3-2.9,1.3-3,2.9c-0.1,1.7,0.8,3,2.5,3.1c1.6,0.1,3.1-0.7,3.2-2.4C-566.4,349.9-567.7,348.7-569.2,348z"/>
</svg>
