<?xml version="1.0" encoding="utf-8"?>
<!-- Generator: Adobe Illustrator 26.0.1, SVG Export Plug-In . SVG Version: 6.00 Build 0)  -->
<svg version="1.1" id="Calque_1" xmlns="http://www.w3.org/2000/svg" xmlns:xlink="http://www.w3.org/1999/xlink" x="0px" y="0px"
	 viewBox="0 0 1000 500" style="enable-background:new 0 0 1000 500;" xml:space="preserve">
<style type="text/css">
	.st0{fill:#9294C9;}
	.st1{fill:#210500;}
</style>
<g>
	<path class="st0" d="M807.94,499.9c-267.78,0-535.56-0.01-803.35,0.09c-3.75,0-4.6-0.84-4.59-4.59C0.11,331.8,0.11,168.2,0,4.59
		C0,0.85,0.84,0,4.59,0C334.86,0.1,665.13,0.1,995.4,0c3.75,0,4.6,0.84,4.59,4.59c-0.12,97.13-0.1,194.26-0.1,291.39
		C982.18,292.53,801.27,480.77,807.94,499.9z"/>
	<polyline class="st0" points="999.9,499.9 999.9,295.98 800.41,295.98 805.14,500 	"/>
	<path class="st1" d="M999.9,107.94c-21.72-7.86-44.47-10.52-67.51-11.95c-22.75-1.42-45.36-0.79-68,1.87
		c-39.53,4.64-76.52,16.4-111.23,34.43c-49.87,25.9-89.6,61.65-119.79,107.14c-24.46,36.85-38.79,77.04-45.14,119.44
		c-7.19,48.02-0.76,95.2,17.34,140.81c0.07,0.17,0.65,0.16,0.98,0.23c-2.79,0-5.58,0-8.37,0c-13.96-37.5-20.52-76.2-18.46-115.78
		c3.65-70.2,29.36-132.6,78.13-186.39c35.52-39.16,78.58-68.67,129.62-87.4c32.07-11.77,65.4-17.99,100.08-20.5
		c38.45-2.78,75.26,3.5,112.35,10.26C999.9,102.71,999.9,105.33,999.9,107.94z"/>
</g>
</svg>
